<?xml version="1.0" encoding="UTF-8"?>
<svg width="172px" height="63px" viewBox="0 0 172 63" version="1.1" xmlns="http://www.w3.org/2000/svg" xmlns:xlink="http://www.w3.org/1999/xlink">
    <!-- Generator: Sketch 57.1 (83088) - https://sketch.com -->
    <title>Studybook logo</title>
    <desc>Created with Sketch.</desc>
    <g id="Studybook-logo" stroke="none" stroke-width="1" fill="none" fill-rule="evenodd">
        <g id="Group-2" fill-rule="nonzero">
            <path d="M57.806,34.334 C57.806,36.332 64.772,35.09 64.772,40.058 C64.772,42.974 62.234,44.378 59.345,44.378 C56.645,44.378 54.647,43.244 53.675,41.165 L56.699,39.464 C57.077,40.571 57.995,41.219 59.345,41.219 C60.452,41.219 61.208,40.841 61.208,40.058 C61.208,38.087 54.242,39.167 54.242,34.415 C54.242,31.661 56.591,30.122 59.372,30.122 C61.559,30.122 63.449,31.121 64.502,32.984 L61.532,34.604 C61.127,33.74 60.371,33.227 59.372,33.227 C58.508,33.227 57.806,33.605 57.806,34.334 Z M72.83,33.848 L69.779,33.848 L69.779,39.464 C69.779,40.922 70.832,40.949 72.83,40.841 L72.83,44 C67.943,44.54 66.296,43.109 66.296,39.464 L66.296,33.848 L63.947,33.848 L63.947,30.5 L66.296,30.5 L66.296,27.773 L69.779,26.72 L69.779,30.5 L72.83,30.5 L72.83,33.848 Z M82.913,30.5 L86.396,30.5 L86.396,44 L82.913,44 L82.913,42.488 C82.103,43.703 80.699,44.378 78.89,44.378 C76.028,44.378 73.787,42.38 73.787,38.789 L73.787,30.5 L77.27,30.5 L77.27,38.357 C77.27,40.193 78.377,41.138 79.943,41.138 C81.644,41.138 82.913,40.139 82.913,37.79 L82.913,30.5 Z M98.315,25.1 L101.798,25.1 L101.798,44 L98.315,44 L98.315,42.407 C97.343,43.649 95.912,44.378 93.941,44.378 C90.323,44.378 87.353,41.273 87.353,37.25 C87.353,33.227 90.323,30.122 93.941,30.122 C95.912,30.122 97.343,30.851 98.315,32.093 L98.315,25.1 Z M94.589,41.057 C96.722,41.057 98.315,39.518 98.315,37.25 C98.315,34.982 96.722,33.443 94.589,33.443 C92.429,33.443 90.836,34.982 90.836,37.25 C90.836,39.518 92.429,41.057 94.589,41.057 Z M112.286,30.5 L116.012,30.5 L111.098,44 C109.694,47.888 107.399,49.589 103.97,49.4 L103.97,46.16 C105.887,46.187 106.859,45.377 107.507,43.568 L101.972,30.5 L105.779,30.5 L109.289,39.572 L112.286,30.5 Z M124.016,30.122 C127.634,30.122 130.604,33.227 130.604,37.25 C130.604,41.273 127.634,44.378 124.016,44.378 C122.045,44.378 120.614,43.649 119.642,42.407 L119.642,44 L116.159,44 L116.159,25.1 L119.642,25.1 L119.642,32.093 C120.614,30.851 122.045,30.122 124.016,30.122 Z M123.368,41.057 C125.528,41.057 127.121,39.518 127.121,37.25 C127.121,34.982 125.528,33.443 123.368,33.443 C121.235,33.443 119.642,34.982 119.642,37.25 C119.642,39.518 121.235,41.057 123.368,41.057 Z M137.987,44.378 C134.018,44.378 130.859,41.273 130.859,37.25 C130.859,33.227 134.018,30.122 137.987,30.122 C141.956,30.122 145.142,33.227 145.142,37.25 C145.142,41.273 141.956,44.378 137.987,44.378 Z M137.987,40.976 C140.066,40.976 141.659,39.437 141.659,37.25 C141.659,35.063 140.066,33.524 137.987,33.524 C135.935,33.524 134.342,35.063 134.342,37.25 C134.342,39.437 135.935,40.976 137.987,40.976 Z M152.525,44.378 C148.556,44.378 145.397,41.273 145.397,37.25 C145.397,33.227 148.556,30.122 152.525,30.122 C156.494,30.122 159.68,33.227 159.68,37.25 C159.68,41.273 156.494,44.378 152.525,44.378 Z M152.525,40.976 C154.604,40.976 156.197,39.437 156.197,37.25 C156.197,35.063 154.604,33.524 152.525,33.524 C150.473,33.524 148.88,35.063 148.88,37.25 C148.88,39.437 150.473,40.976 152.525,40.976 Z M173.084,44 L169.034,44 L164.12,37.871 L164.12,44 L160.637,44 L160.637,25.1 L164.12,25.1 L164.12,36.44 L168.764,30.5 L172.922,30.5 L167.495,37.169 L173.084,44 Z" id="studybook" fill="#3F3F3F"></path>
            <g id="medicine-copy" fill="#1BD9C4">
                <path d="M31.5,0 C28.4624875,0 26,2.4624875 26,5.5 C26.003575,8.536 28.464,10.996425 31.5,11 C34.5375125,11 37,8.5375125 37,5.5 C37,2.4624875 34.5375125,0 31.5,0 Z M31.5,8.8 C29.6774375,8.8 28.2,7.3225625 28.2,5.5 C28.2,3.6774375 29.6774375,2.2 31.5,2.2 C33.3225625,2.2 34.8,3.6774375 34.8,5.5 C34.8,7.3225625 33.3225625,8.8 31.5,8.8 Z" id="Shape"></path>
                <path d="M62.7831626,15.4114295 C62.5907877,15.1516081 62.2959481,15.0000005 61.9837353,15.0000005 L39.5328135,15.0000005 C38.988787,14.9994652 38.5411381,15.4522777 38.5183118,16.0264294 L38.000916,28.8835706 C37.9773288,29.4747313 38.4121696,29.9741508 38.9719209,29.9990616 C38.9863775,29.9997312 39.000961,30.0000005 39.0154176,30.0000005 L47.6589718,30.0000005 C49.9871263,29.9993294 52.015876,28.3249546 52.5793049,25.9392853 L52.6320589,25.7142853 L53.7480108,25.7142853 C56.0761653,25.7136157 58.104915,24.0392409 58.6683438,21.6535715 L58.7444315,21.332143 C60.6852999,20.9339734 62.2354585,19.3907147 62.7263505,17.3678578 L62.9708454,16.3285722 C63.0450308,16.0086169 62.9759179,15.6704473 62.7831626,15.4114295 Z M47.6589718,27.8571422 L40.0704994,27.8571422 L40.1577465,25.7142853 L50.526968,25.7142853 C50.0971997,26.9979905 48.9481498,27.8564725 47.6589718,27.8571422 Z M53.7459818,23.5714284 L40.2470226,23.5714284 L40.3332553,21.4285716 L56.613978,21.4285716 C56.1842097,22.7122768 55.0351598,23.5707588 53.7459818,23.5714284 Z M57.9257286,19.2857147 L40.4194879,19.2857147 L40.5057206,17.1428578 L60.6719846,17.1428578 C60.2519809,18.3786166 59.1676055,19.2247772 57.9257286,19.2857147 Z" id="Shape"></path>
                <path d="M24.4816459,16.0264294 C24.4588173,15.4522777 24.0111231,14.9994652 23.4670414,15.0000005 L1.01485816,15.0000005 C0.454542821,15.0000005 0,15.4794652 0,16.0711615 C0,16.1579472 0.00989239399,16.2443312 0.029677182,16.3285722 L0.275211474,17.3732149 C0.76792879,19.3921879 2.31710305,20.9314288 4.25550497,21.3278573 L4.33362952,21.6589287 C4.89901788,24.0420534 6.92695865,25.7137496 9.2534468,25.7142853 L9.35490725,25.7142853 L9.40969589,25.9446424 C10.0336777,28.5685707 14.3264694,30.0000005 16.3556784,30.0000005 L23.9855043,30.0000005 C24.2621109,30.0000005 24.526669,29.8808026 24.7180488,29.6699991 C24.9093017,29.4591956 25.0107622,29.1751331 24.9990942,28.8835706 L24.4816459,16.0264294 Z M5.10269974,19.2857147 C3.85067777,19.2342861 2.75312934,18.3870541 2.3267418,17.1428578 L22.4950503,17.1428578 L22.5812917,19.2857147 L5.10269974,19.2857147 Z M9.2534468,23.5714284 C7.96401129,23.5707588 6.81497168,22.7122768 6.38515984,21.4285716 L22.667533,21.4285716 L22.7537744,23.5714284 L9.2534468,23.5714284 Z M16.3556784,27.8571422 C14.7668077,27.8571422 12.1410112,26.7632137 11.4997812,25.7142853 L22.8400158,25.7142853 L22.9272718,27.8571422 L16.3556784,27.8571422 Z" id="Shape"></path>
                <path d="M40.8635732,32.3869126 L37.7272317,32.3869126 L37.7272317,34.4277474 L40.8635732,34.4277474 C41.4409214,34.4277474 41.9090203,34.8846393 41.9090203,35.4481648 L41.9090203,37.7726755 C41.9090203,38.2779097 41.5301764,38.7071227 41.0182993,38.7818683 L35.5694288,39.5788143 L36.5866489,16.1969706 C36.6634893,14.5079248 35.322834,13.0779374 33.5924883,13.0030643 C33.5451818,13.0010234 33.4977446,13.0000015 33.4503075,13.0000015 L29.4577448,13.0000015 C27.7255696,12.9983448 26.3199659,14.3674898 26.318267,16.0581939 C26.318267,16.1047504 26.3193125,16.1514345 26.3214034,16.197991 L27.3908958,40.7778047 L23.6701494,41.3227076 C22.1315126,41.5400565 20.9923672,42.8308844 21.0000385,44.3482451 L21.0000385,46.6727558 C21.0000385,48.3634599 22.4042436,49.7340079 24.1364189,49.7340079 L26.2273131,49.7340079 L26.2273131,47.6931732 L24.1364189,47.6931732 C23.5590707,47.6931732 23.0909717,47.2362813 23.0909717,46.6727558 L23.0909717,44.3482451 C23.0909717,43.8430109 23.4698156,43.4137979 23.9816927,43.3390523 L27.4808043,42.8288436 L27.8393926,51.0819793 L25.6439536,51.4819829 C24.1633391,51.7555823 23.0912331,53.0183488 23.0909717,54.4891529 L23.0909717,56.8769295 C23.0909717,58.5676336 24.4951379,59.9381817 26.2273131,59.9381817 L27.2727603,59.9381817 L27.2727603,57.8973469 L26.2273131,57.8973469 C25.649965,57.8973469 25.181866,57.440455 25.181866,56.8769295 L25.181866,54.4891529 C25.1817353,53.9983321 25.5396703,53.5768998 26.0339054,53.4860826 L27.9293011,53.1391407 L28.2356171,60.193286 C28.3468265,61.7954688 29.7270781,63.0303014 31.3719585,62.9994338 L31.5392301,62.9994338 C33.1869855,63.0295361 34.5680211,61.7902392 34.6755715,60.1851227 L35.0383417,51.8381086 L39.352902,51.0493259 C40.8356075,50.7768745 41.9094124,49.5127049 41.9090203,48.0401151 L41.9090203,45.6523385 C41.9090203,43.9616344 40.5048541,42.5910863 38.7726789,42.5910863 L36.6817846,42.5910863 L36.6817846,44.6319211 L38.7726789,44.6319211 C39.3500271,44.6319211 39.818126,45.088813 39.818126,45.6523385 L39.818126,48.0401151 C39.8182567,48.5309359 39.4603217,48.9523682 38.9660866,49.0431854 L35.1272047,49.7452325 L35.4795204,41.6553636 L41.3287971,40.7992334 C42.8682181,40.5822672 44.0080168,39.2908015 43.9999575,37.7726755 L43.9999575,35.4481648 C43.9999575,33.7574607 42.5957484,32.3869126 40.8635732,32.3869126 Z M32.5857227,60.0871626 C32.5219504,60.5978815 32.0670502,60.9753084 31.5402755,60.9545174 L31.373004,60.9545174 C30.8487122,60.9767114 30.3944655,60.6033662 30.3275568,60.0953259 L30.0139227,52.7554638 L32.9359475,52.2207651 L32.5857227,60.0871626 Z M33.0185378,50.127889 L29.9156507,50.6952411 L29.5601986,42.5186367 L33.3739898,41.9604684 L33.0185378,50.127889 Z M34.4957546,16.1071739 L33.4618074,39.8880007 L29.4681993,40.4726999 L28.4112522,16.1071739 C28.384724,15.5441586 28.8307379,15.0668584 29.4075634,15.0409653 C29.4238985,15.0402 29.4403643,15.0399207 29.4566994,15.0399207 L33.4503075,15.0399207 C34.0276557,15.0393071 34.4962773,15.4956888 34.4968001,16.0593418 C34.4968001,16.0751583 34.4965387,16.0911023 34.4957546,16.1071739 Z" id="Shape"></path>
                <path d="M22,34 L25,34 L25,32 L22,32 C20.343125,32 19,33.343125 19,35 L19,37 C19,38.656875 20.343125,40 22,40 L25,40 L25,38 L22,38 C21.44775,38 21,37.55225 21,37 L21,35 C21,34.447625 21.44775,34 22,34 Z" id="Path"></path>
                <path d="M37,53 L36,53 L36,54.7142857 L37,54.7142857 C37.55225,54.7142857 38,55.0980714 38,55.5714286 L38,56.4285714 C38,56.9019286 37.55225,57.2857143 37,57.2857143 L36,57.2857143 L36,59 L37,59 C38.656875,59 40,57.84875 40,56.4285714 L40,55.5714286 C40,54.15125 38.656875,53 37,53 Z" id="Path"></path>
            </g>
        </g>
    </g>
</svg>